C:\Users\r0593348\3dpredictsim\Results\Batchsim_tmt_linear_v2\Pog_s1_tmt_bCst_d02_k500_ig24_act_GRF.mot
nRows=22
nColumns=19

name C:\Users\r0593348\3dpredictsim\Results\Batchsim_tmt_linear_v2\Pog_s1_tmt_bCst_d02_k500_ig24_act_GRF.mot
datacolumns 19
datarows 22
range 0.0000000000 0.2723231337
endheader
time 	ground_force_vx	ground_force_vy	ground_force_vz	ground_force_px	ground_force_py	ground_force_pz	1_ground_force_vx	1_ground_force_vy	1_ground_force_vz	1_ground_force_px	1_ground_force_py	1_ground_force_pz	ground_torque_x	ground_torque_y	ground_torque_z	1_ground_torque_x	1_ground_torque_y	1_ground_torque_z
        0.0000000000	      -84.9987498163	       68.1224378743	       12.3638192724	        0.3893849024	        0.0000000000	        0.0292279798	       63.5272343842	      295.3706534396	      -11.5671094094	       -0.3812440012	        0.0000000000	       -0.0467546358	        0.0000000000	        0.0000000000	        0.0000000000	        0.0000000000	        0.0000000000	        0.0000000000	
        0.0129677683	     -170.6017700486	      159.3972156682	       22.4717987895	        0.3697859382	        0.0000000000	        0.0384867994	       38.6236239981	      241.0079395068	      -12.5841099986	       -0.3643019574	        0.0000000000	       -0.0459070476	        0.0000000000	        0.0000000000	        0.0000000000	        0.0000000000	        0.0000000000	        0.0000000000	
        0.0259355365	     -197.3523327053	      461.5640509663	        2.3998072861	        0.3393090257	        0.0000000000	        0.0510043054	       41.9141574552	      207.2100502014	      -15.8264538277	       -0.3638122636	        0.0000000000	       -0.0461006174	        0.0000000000	        0.0000000000	        0.0000000000	        0.0000000000	        0.0000000000	        0.0000000000	
        0.0389033048	     -215.5831463887	      683.0351900910	       -7.3242150015	        0.3241157510	        0.0000000000	        0.0556894703	       38.8458730767	      163.6399423828	      -17.6813301538	       -0.3633764690	        0.0000000000	       -0.0462861945	        0.0000000000	        0.0000000000	        0.0000000000	        0.0000000000	        0.0000000000	        0.0000000000	
        0.0518710731	     -220.0085757105	      850.8777154911	      -13.1846152685	        0.3149737939	        0.0000000000	        0.0587393253	       30.9431712951	      108.8862027243	      -18.4214281653	       -0.3628420581	        0.0000000000	       -0.0466455176	        0.0000000000	        0.0000000000	        0.0000000000	        0.0000000000	        0.0000000000	        0.0000000000	
        0.0648388413	     -218.2932129460	      890.2368362664	      -13.9291187223	        0.3106873910	        0.0000000000	        0.0602571176	        9.3087837726	       40.8430845938	       -9.0675956277	       -0.3631912657	        0.0000000000	       -0.0466310445	        0.0000000000	        0.0000000000	        0.0000000000	        0.0000000000	        0.0000000000	        0.0000000000	
        0.0778066096	     -204.7517320483	      871.2506014303	      -14.5161884633	        0.3077044274	        0.0000000000	        0.0611660337	        0.2480370985	       -0.2513723296	        0.0258639405	        0.0000000000	        0.0000000000	        0.0000000000	        0.0000000000	        0.0000000000	        0.0000000000	        0.0000000000	        0.0000000000	        0.0000000000	
        0.0907743779	     -180.8040675457	      835.5942379741	      -14.7286522167	        0.3062881498	        0.0000000000	        0.0617606283	        0.3600297466	       -0.2694536469	       -0.0160137312	        0.0000000000	        0.0000000000	        0.0000000000	        0.0000000000	        0.0000000000	        0.0000000000	        0.0000000000	        0.0000000000	        0.0000000000	
        0.1037421462	     -158.9269592141	      786.3015996900	      -15.1178542499	        0.3064395303	        0.0000000000	        0.0621788273	       -8.2375744976	        5.2117377711	        0.5465231040	        0.0000000000	        0.0000000000	        0.0000000000	        0.0000000000	        0.0000000000	        0.0000000000	        0.0000000000	        0.0000000000	        0.0000000000	
        0.1167099144	     -139.8852492581	      740.2159061494	      -15.7201828676	        0.3074426713	        0.0000000000	        0.0625111917	       -8.8220751754	        4.9157852441	        0.6379884769	        0.0000000000	        0.0000000000	        0.0000000000	        0.0000000000	        0.0000000000	        0.0000000000	        0.0000000000	        0.0000000000	        0.0000000000	
        0.1296776827	     -122.4780888343	      702.9486624477	      -15.6528614840	        0.3089125778	        0.0000000000	        0.0628174377	       -7.3708768045	        3.7047423300	        0.5705511253	        0.0000000000	        0.0000000000	        0.0000000000	        0.0000000000	        0.0000000000	        0.0000000000	        0.0000000000	        0.0000000000	        0.0000000000	
        0.1426454510	     -107.5132462177	      674.9743623091	      -16.0102432510	        0.3108950582	        0.0000000000	        0.0630012627	       -6.6472400227	        3.1100087679	        0.5079193624	        0.0000000000	        0.0000000000	        0.0000000000	        0.0000000000	        0.0000000000	        0.0000000000	        0.0000000000	        0.0000000000	        0.0000000000	
        0.1556132192	      -96.0106828243	      652.7491599928	      -16.5439168129	        0.3132499641	        0.0000000000	        0.0630282847	       -5.9085611499	        2.6491184760	        0.3869609739	        0.0000000000	        0.0000000000	        0.0000000000	        0.0000000000	        0.0000000000	        0.0000000000	        0.0000000000	        0.0000000000	        0.0000000000	
        0.1685809875	      -86.9735892977	      634.0927875816	      -17.5559225147	        0.3157263078	        0.0000000000	        0.0629313497	       -5.1639853936	        2.2334347207	        0.2868447043	        0.0000000000	        0.0000000000	        0.0000000000	        0.0000000000	        0.0000000000	        0.0000000000	        0.0000000000	        0.0000000000	        0.0000000000	
        0.1815487558	      -79.5671798481	      616.5511243613	      -18.7945493702	        0.3180997568	        0.0000000000	        0.0627593799	       -4.3337180827	        1.8211938989	        0.1982376808	        0.0000000000	        0.0000000000	        0.0000000000	        0.0000000000	        0.0000000000	        0.0000000000	        0.0000000000	        0.0000000000	        0.0000000000	
        0.1945165240	      -73.1586114449	      599.9470771380	      -19.8127529744	        0.3201748851	        0.0000000000	        0.0625709049	       -3.4728249443	        1.4269439141	        0.1253307942	        0.0000000000	        0.0000000000	        0.0000000000	        0.0000000000	        0.0000000000	        0.0000000000	        0.0000000000	        0.0000000000	        0.0000000000	
        0.2074842923	      -67.2471416980	      584.7159445626	      -20.5117013798	        0.3218631216	        0.0000000000	        0.0623899985	       -2.7113177581	        1.0946894675	        0.0727711004	        0.0000000000	        0.0000000000	        0.0000000000	        0.0000000000	        0.0000000000	        0.0000000000	        0.0000000000	        0.0000000000	        0.0000000000	
        0.2204520606	      -61.5856993730	      570.4455775166	      -21.3651100042	        0.3231900141	        0.0000000000	        0.0622075250	       -2.1777268751	        0.8663996328	        0.0400935497	        0.0000000000	        0.0000000000	        0.0000000000	        0.0000000000	        0.0000000000	        0.0000000000	        0.0000000000	        0.0000000000	        0.0000000000	
        0.2334198289	      -56.2162045690	      556.6252468551	      -22.5489854865	        0.3242303976	        0.0000000000	        0.0620109130	       -1.8410075708	        0.7232951850	        0.0208077842	        0.0000000000	        0.0000000000	        0.0000000000	        0.0000000000	        0.0000000000	        0.0000000000	        0.0000000000	        0.0000000000	        0.0000000000	
        0.2463875971	      -50.9397522690	      543.2196524238	      -23.8619787335	        0.3249986583	        0.0000000000	        0.0618076592	       -1.6416701436	        0.6381053777	        0.0095568141	        0.0000000000	        0.0000000000	        0.0000000000	        0.0000000000	        0.0000000000	        0.0000000000	        0.0000000000	        0.0000000000	        0.0000000000	
        0.2593553654	      -45.5719267931	      530.4805031883	      -25.2810738723	        0.3254754673	        0.0000000000	        0.0615990570	       -1.5284460262	        0.5887046077	        0.0031790471	        0.0000000000	        0.0000000000	        0.0000000000	        0.0000000000	        0.0000000000	        0.0000000000	        0.0000000000	        0.0000000000	        0.0000000000	
        0.2723231337	      -40.0291383562	      518.7090943388	      -26.6296459144	        0.3256377746	        0.0000000000	        0.0613871080	       -1.4591272609	        0.5577700525	        0.0000015305	        0.0000000000	        0.0000000000	        0.0000000000	        0.0000000000	        0.0000000000	        0.0000000000	        0.0000000000	        0.0000000000	        0.0000000000	
